<svg width="22" height="24" viewBox="0 0 22 24" fill="none" xmlns="http://www.w3.org/2000/svg">
<path d="M20.55 6.00005H21.22C20.1963 4.50694 18.8373 3.27416 17.2518 2.40034C15.6663 1.52653 13.8983 1.03593 12.0892 0.967811C10.2802 0.89969 8.48026 1.25593 6.83354 2.00804C5.18681 2.76015 3.73898 3.88723 2.60588 5.29913C1.47278 6.71102 0.685863 8.36852 0.308096 10.139C-0.0696696 11.9095 -0.0278004 13.7439 0.430354 15.4953C0.888508 17.2467 1.75023 18.8666 2.94657 20.2253C4.14291 21.584 5.64066 22.6439 7.31999 23.32C6.99846 22.1401 6.83371 20.923 6.82999 19.7C6.84056 16.0664 8.29009 12.5848 10.8614 10.0173C13.4327 7.44977 16.9163 6.00532 20.55 6.00005Z" fill="#D15187"/>
</svg>
